<svg xmlns="http://www.w3.org/2000/svg" version="1.1" xmlns:xlink="http://www.w3.org/1999/xlink" width="1080" height="1080"><svg width="1080" height="1080" viewBox="0 0 1080 1080" fill="none" xmlns="http://www.w3.org/2000/svg">
<g clip-path="url(#clip0_21_25)">
<path d="M1064.02 161.218C1064.02 413.435 1064.02 665.653 1063.66 918.532C1062.92 921.261 1062.49 923.319 1062.19 925.398C1051.67 997.396 998.749 1057.5 930.456 1074.83C922.328 1076.89 914.05 1078.33 905.842 1080.05C662.252 1080.05 418.662 1080.05 174.491 1079.66C172.43 1078.91 170.968 1078.42 169.469 1078.2C140.124 1073.91 113.664 1062.41 90.1031 1043.94C54.967 1016.4 32.1327 980.595 22.7309 935.905C21.4616 929.871 20.2557 923.823 19.0205 917.782C19.0205 667.321 19.0205 416.859 19.365 165.674C28.159 86.5619 80.1837 24.8976 154.109 5.75652C161.069 3.95454 168.139 2.61041 175.158 1.05371C418.408 1.05371 661.657 1.05371 905.586 1.42032C910.635 2.39882 915.042 2.81065 919.371 3.65242C991.46 17.6701 1046.74 74.1907 1061.01 148.344C1061.84 152.67 1063.01 156.928 1064.02 161.218ZM345.775 874.826C346.067 874.677 346.36 874.528 347.16 873.943C348.833 871.986 350.53 870.051 352.176 868.069C398.144 812.696 444.122 757.331 490.024 701.899C492.079 699.418 494.123 698.374 497.344 698.38C549.668 698.481 601.993 698.435 654.318 698.436C656.86 698.436 659.401 698.563 662.096 698.965C662.375 698.911 662.653 698.857 663.616 699.046C686.737 755.52 709.937 811.959 732.83 868.531C734.689 873.126 736.889 874.36 741.329 874.348C787.416 874.23 833.503 874.292 879.591 874.29C880.857 874.29 882.122 874.133 884.067 874.005C791.333 651.229 698.862 429.085 606.3 206.723C564.066 206.723 521.726 206.684 479.387 206.88C477.876 206.887 475.643 208.882 474.972 210.494C427.678 324.125 380.581 437.843 333.311 551.484C289.323 657.234 245.162 762.907 201.086 868.617C200.389 870.289 199.798 872.007 198.943 874.273C201.902 874.273 204.1 874.273 206.298 874.273C245.073 874.271 283.847 874.259 322.622 874.275C330.266 874.279 337.91 874.393 345.775 874.826Z" fill="#161616"></path>
<path d="M661.943 698.63C659.401 698.563 656.86 698.436 654.318 698.436C601.993 698.435 549.668 698.481 497.344 698.38C494.123 698.374 492.079 699.418 490.024 701.899C444.122 757.331 398.144 812.696 352.176 868.069C350.53 870.051 348.833 871.986 346.624 874.07C345.911 874.283 345.733 874.37 345.554 874.456C337.91 874.393 330.266 874.279 322.622 874.275C283.847 874.259 245.073 874.271 206.298 874.273C204.1 874.273 201.902 874.273 198.943 874.273C199.798 872.007 200.389 870.289 201.086 868.617C245.162 762.907 289.323 657.234 333.311 551.484C380.581 437.843 427.679 324.125 474.972 210.494C475.643 208.882 477.876 206.886 479.387 206.88C521.726 206.684 564.066 206.723 606.3 206.723C698.862 429.085 791.333 651.229 884.067 874.005C882.122 874.133 880.857 874.29 879.591 874.29C833.503 874.292 787.416 874.23 741.329 874.349C736.889 874.36 734.689 873.126 732.83 868.531C709.937 811.959 686.737 755.52 663.047 698.756C662.3 698.52 662.122 698.575 661.943 698.63ZM631.208 669.466C636.465 669.468 641.723 669.554 646.976 669.406C648.184 669.372 649.37 668.535 650.525 667.312C641.373 644.679 632.186 622.061 623.102 599.398C621.675 595.838 619.984 594.206 615.709 594.228C566.917 594.474 518.122 594.533 469.331 594.233C463.52 594.197 461.205 596.27 459.107 601.45C437.506 654.774 415.662 707.993 393.881 761.239C391.369 767.38 388.821 773.505 386.291 779.637C386.659 779.913 387.027 780.189 387.396 780.465C388.8 779.16 390.361 777.996 391.584 776.53C420.196 742.242 448.76 707.911 477.386 673.634C478.781 671.963 480.648 670.714 482.845 669.497C483.027 669.42 483.209 669.343 484.313 669.534C491.466 669.437 498.62 669.341 506.316 669.445C506.496 669.378 506.677 669.312 507.775 669.534C515.608 669.44 523.441 669.346 532.213 669.486C538.392 669.405 544.571 669.324 551.666 669.531C562.152 669.542 572.638 669.599 583.123 669.554C598.839 669.486 614.554 669.347 631.208 669.466ZM595.549 458.902C611.076 496.997 626.57 535.106 642.192 573.159C643.424 576.16 645.227 579.054 647.294 581.526C674.168 613.673 701.114 645.757 728.092 677.812C756.269 711.292 784.5 744.724 812.708 778.177C813.07 778.037 813.433 777.897 813.795 777.757C742.253 605.656 670.712 433.556 598.897 260.8C598.061 262.381 597.507 263.237 597.13 264.168C584.037 296.496 570.926 328.816 557.984 361.208C557.337 362.829 557.704 365.288 558.398 367.015C570.62 397.422 582.966 427.776 595.549 458.902ZM505.192 415.044C511.626 399.221 517.947 383.346 524.593 367.618C525.885 364.56 525.785 362.229 524.567 359.284C515.308 336.887 506.189 314.428 497.057 291.975C492.876 281.693 488.765 271.381 484.331 260.357C412.44 433.322 340.93 605.369 269.421 777.416C271.374 776.736 272.851 775.511 274.073 774.058C301.488 741.467 328.861 708.838 356.271 676.242C383.01 644.445 409.799 612.693 436.498 580.861C438.131 578.914 439.475 576.57 440.445 574.19C461.962 521.405 483.407 468.59 505.192 415.044ZM600.515 544.52C580.998 496.759 561.481 448.998 541.548 400.216C518.767 455.978 496.424 510.667 474.007 565.537C519.229 565.537 563.678 565.537 608.792 565.537C605.988 558.471 603.372 551.88 600.515 544.52ZM685.435 670.617C683.999 669.284 682.563 667.951 681.128 666.618C682.478 671.725 684.494 675.962 686.263 680.307C708.082 733.864 729.899 787.422 751.571 841.043C752.894 844.316 754.372 845.423 757.829 845.396C781.112 845.214 804.398 845.299 827.684 845.298C829.105 845.298 830.527 845.298 832.97 845.298C783.436 786.656 734.673 728.927 685.435 670.617ZM352.611 788.595C369.098 748.269 385.586 707.942 402.074 667.616C401.625 667.351 401.176 667.087 400.727 666.822C350.753 726.058 300.78 785.293 250.15 845.306C276.445 845.306 301.435 845.359 326.424 845.172C327.911 845.16 330.148 843.556 330.748 842.119C338.07 824.587 345.151 806.947 352.611 788.595ZM545.55 317.628C556.514 290.532 567.478 263.437 578.527 236.131C553.6 236.131 529.253 236.131 504.445 236.131C516.809 266.497 528.969 296.363 541.559 327.284C543.15 323.471 544.211 320.927 545.55 317.628Z" fill="#FCFCFC"></path>
<path d="M662.02 698.798C662.122 698.575 662.3 698.52 662.704 698.634C662.652 698.857 662.374 698.911 662.02 698.798Z" fill="#0A0A0A"></path>
<path d="M345.665 874.641C345.733 874.369 345.91 874.283 346.37 874.288C346.359 874.528 346.067 874.677 345.665 874.641Z" fill="black"></path>
<path d="M595.417 458.521C582.966 427.776 570.62 397.422 558.398 367.015C557.704 365.288 557.337 362.829 557.984 361.208C570.926 328.816 584.037 296.496 597.13 264.168C597.507 263.237 598.061 262.381 598.897 260.8C670.712 433.556 742.253 605.656 813.795 777.756C813.433 777.897 813.07 778.037 812.708 778.177C784.5 744.724 756.269 711.292 728.092 677.812C701.114 645.757 674.168 613.673 647.294 581.526C645.227 579.054 643.424 576.16 642.192 573.159C626.57 535.106 611.076 496.997 595.417 458.521Z" fill="#171717"></path>
<path d="M505.029 415.412C483.407 468.59 461.962 521.405 440.445 574.19C439.475 576.57 438.131 578.914 436.498 580.861C409.798 612.693 383.01 644.445 356.271 676.242C328.861 708.838 301.488 741.467 274.073 774.058C272.851 775.511 271.374 776.736 269.421 777.415C340.93 605.369 412.44 433.322 484.331 260.357C488.765 271.381 492.876 281.693 497.057 291.975C506.189 314.428 515.308 336.887 524.567 359.284C525.785 362.229 525.885 364.56 524.593 367.618C517.947 383.346 511.626 399.221 505.029 415.412Z" fill="#171717"></path>
<path d="M531.275 669.252C523.441 669.346 515.608 669.44 507.213 669.202C506.359 668.996 506.066 669.12 505.774 669.245C498.62 669.341 491.466 669.437 483.748 669.209C482.887 669.013 482.592 669.141 482.296 669.268C480.648 670.714 478.78 671.963 477.385 673.634C448.76 707.911 420.196 742.242 391.584 776.53C390.361 777.996 388.8 779.16 387.396 780.465C387.027 780.189 386.659 779.913 386.291 779.637C388.821 773.505 391.369 767.379 393.881 761.239C415.662 707.993 437.506 654.774 459.107 601.45C461.205 596.27 463.52 594.197 469.331 594.233C518.122 594.533 566.917 594.474 615.709 594.228C619.984 594.206 621.675 595.838 623.102 599.398C632.186 622.061 641.373 644.679 650.077 667.695C647.773 668.071 645.909 667.949 644.061 668.08C639.46 668.405 634.866 668.844 630.269 669.238C614.554 669.347 598.838 669.486 583.123 669.554C572.637 669.599 562.152 669.542 550.925 669.049C543.88 668.795 537.578 669.024 531.275 669.252Z" fill="#171717"></path>
<path d="M600.636 544.905C603.372 551.88 605.988 558.471 608.792 565.537C563.678 565.537 519.229 565.537 474.007 565.537C496.424 510.667 518.767 455.978 541.548 400.216C561.481 448.998 580.998 496.759 600.636 544.905Z" fill="#171717"></path>
<path d="M685.672 670.908C734.673 728.927 783.436 786.656 832.971 845.298C830.527 845.298 829.105 845.298 827.684 845.298C804.398 845.299 781.113 845.214 757.829 845.396C754.372 845.423 752.894 844.316 751.571 841.043C729.899 787.422 708.082 733.864 686.264 680.307C684.494 675.962 682.478 671.725 681.128 666.618C682.564 667.951 683.999 669.284 685.672 670.908Z" fill="#171717"></path>
<path d="M352.453 788.965C345.151 806.947 338.07 824.587 330.748 842.119C330.148 843.556 327.911 845.16 326.424 845.172C301.435 845.359 276.445 845.306 250.15 845.306C300.78 785.293 350.753 726.058 400.727 666.822C401.176 667.087 401.625 667.351 402.074 667.616C385.586 707.942 369.098 748.269 352.453 788.965Z" fill="#171717"></path>
<path d="M545.411 318.006C544.211 320.927 543.15 323.471 541.559 327.284C528.969 296.363 516.809 266.497 504.445 236.131C529.253 236.131 553.6 236.131 578.527 236.131C567.478 263.437 556.514 290.532 545.411 318.006Z" fill="#171717"></path>
<path d="M630.739 669.352C634.866 668.844 639.46 668.405 644.061 668.08C645.908 667.949 647.773 668.071 650.098 668.073C649.37 668.535 648.184 669.372 646.976 669.406C641.723 669.554 636.465 669.468 630.739 669.352Z" fill="#040404"></path>
<path d="M531.744 669.369C537.578 669.024 543.88 668.795 550.467 668.904C544.571 669.324 538.392 669.405 531.744 669.369Z" fill="#040404"></path>
<path d="M482.57 669.382C482.592 669.141 482.887 669.013 483.287 669.075C483.209 669.342 483.026 669.419 482.57 669.382Z" fill="#040404"></path>
<path d="M506.045 669.345C506.066 669.12 506.358 668.996 506.754 669.058C506.677 669.311 506.496 669.378 506.045 669.345Z" fill="#040404"></path>
</g>
<defs>
<clipPath id="SvgjsClipPath1011">
<rect width="1045" height="1079" fill="white" transform="translate(18)"></rect>
</clipPath>
</defs>
</svg><style>@media (prefers-color-scheme: light) { :root { filter: none; } }
@media (prefers-color-scheme: dark) { :root { filter: none; } }
</style></svg>